REM MD5 02980fbcaa16df76f72e9e5cbad98ff1
FILE "Tomb Raider II - Starring Lara Croft (USA) (Rev 1).bin" BINARY
  TRACK 01 MODE2/2352
    INDEX 01 00:00:00
  TRACK 02 AUDIO
    INDEX 00 31:58:00
    INDEX 01 32:00:00
  TRACK 03 AUDIO
    INDEX 00 33:25:34
    INDEX 01 33:27:34
  TRACK 04 AUDIO
    INDEX 00 35:21:59
    INDEX 01 35:23:59
  TRACK 05 AUDIO
    INDEX 00 37:39:44
    INDEX 01 37:41:44
  TRACK 06 AUDIO
    INDEX 00 37:49:29
    INDEX 01 37:51:29
  TRACK 07 AUDIO
    INDEX 00 37:58:26
    INDEX 01 38:00:26
  TRACK 08 AUDIO
    INDEX 00 38:05:27
    INDEX 01 38:07:27
  TRACK 09 AUDIO
    INDEX 00 38:12:29
    INDEX 01 38:14:29
  TRACK 10 AUDIO
    INDEX 00 38:20:29
    INDEX 01 38:22:29
  TRACK 11 AUDIO
    INDEX 00 38:33:53
    INDEX 01 38:35:53
  TRACK 12 AUDIO
    INDEX 00 38:51:38
    INDEX 01 38:53:38
  TRACK 13 AUDIO
    INDEX 00 39:02:01
    INDEX 01 39:04:01
  TRACK 14 AUDIO
    INDEX 00 39:13:10
    INDEX 01 39:15:10
  TRACK 15 AUDIO
    INDEX 00 39:20:11
    INDEX 01 39:22:11
  TRACK 16 AUDIO
    INDEX 00 39:27:12
    INDEX 01 39:29:12
  TRACK 17 AUDIO
    INDEX 00 39:34:14
    INDEX 01 39:36:14
  TRACK 18 AUDIO
    INDEX 00 39:45:16
    INDEX 01 39:47:16
  TRACK 19 AUDIO
    INDEX 00 39:52:17
    INDEX 01 39:54:17
  TRACK 20 AUDIO
    INDEX 00 39:59:18
    INDEX 01 40:01:18
  TRACK 21 AUDIO
    INDEX 00 40:06:19
    INDEX 01 40:08:19
  TRACK 22 AUDIO
    INDEX 00 40:13:20
    INDEX 01 40:15:20
  TRACK 23 AUDIO
    INDEX 00 40:20:21
    INDEX 01 40:22:21
  TRACK 24 AUDIO
    INDEX 00 40:38:70
    INDEX 01 40:40:70
  TRACK 25 AUDIO
    INDEX 00 40:49:71
    INDEX 01 40:51:71
  TRACK 26 AUDIO
    INDEX 00 40:56:72
    INDEX 01 40:58:72
  TRACK 27 AUDIO
    INDEX 00 41:50:62
    INDEX 01 41:52:62
  TRACK 28 AUDIO
    INDEX 00 42:52:48
    INDEX 01 42:54:48
  TRACK 29 AUDIO
    INDEX 00 44:15:48
    INDEX 01 44:17:48
  TRACK 30 AUDIO
    INDEX 00 45:24:04
    INDEX 01 45:26:04
  TRACK 31 AUDIO
    INDEX 00 46:59:71
    INDEX 01 47:01:71
  TRACK 32 AUDIO
    INDEX 00 47:09:53
    INDEX 01 47:11:53
  TRACK 33 AUDIO
    INDEX 00 47:16:26
    INDEX 01 47:18:26
  TRACK 34 AUDIO
    INDEX 00 47:34:61
    INDEX 01 47:36:61
  TRACK 35 AUDIO
    INDEX 00 48:31:20
    INDEX 01 48:33:20
  TRACK 36 AUDIO
    INDEX 00 48:53:11
    INDEX 01 48:55:11
  TRACK 37 AUDIO
    INDEX 00 51:34:05
    INDEX 01 51:36:05
  TRACK 38 AUDIO
    INDEX 00 51:48:18
    INDEX 01 51:50:18
  TRACK 39 AUDIO
    INDEX 00 52:01:50
    INDEX 01 52:03:50
  TRACK 40 AUDIO
    INDEX 00 52:18:38
    INDEX 01 52:20:38
  TRACK 41 AUDIO
    INDEX 00 52:38:26
    INDEX 01 52:40:26
  TRACK 42 AUDIO
    INDEX 00 53:39:32
    INDEX 01 53:41:32
  TRACK 43 AUDIO
    INDEX 00 54:14:62
    INDEX 01 54:16:62
  TRACK 44 AUDIO
    INDEX 00 54:21:16
    INDEX 01 54:23:16
  TRACK 45 AUDIO
    INDEX 00 54:37:15
    INDEX 01 54:39:15
  TRACK 46 AUDIO
    INDEX 00 54:49:13
    INDEX 01 54:51:13
  TRACK 47 AUDIO
    INDEX 00 55:03:40
    INDEX 01 55:05:40
  TRACK 48 AUDIO
    INDEX 00 55:13:73
    INDEX 01 55:15:73
  TRACK 49 AUDIO
    INDEX 00 57:59:06
    INDEX 01 58:01:06
  TRACK 50 AUDIO
    INDEX 00 59:12:31
    INDEX 01 59:14:31
  TRACK 51 AUDIO
    INDEX 00 59:22:03
    INDEX 01 59:24:03
  TRACK 52 AUDIO
    INDEX 00 60:06:11
    INDEX 01 60:08:11
  TRACK 53 AUDIO
    INDEX 00 60:17:71
    INDEX 01 60:19:71
  TRACK 54 AUDIO
    INDEX 00 61:09:02
    INDEX 01 61:11:02
  TRACK 55 AUDIO
    INDEX 00 62:21:68
    INDEX 01 62:23:68
  TRACK 56 AUDIO
    INDEX 00 64:42:60
    INDEX 01 64:44:60
  TRACK 57 AUDIO
    INDEX 00 66:30:38
    INDEX 01 66:32:38
  TRACK 58 AUDIO
    INDEX 00 66:56:08
    INDEX 01 66:58:08
  TRACK 59 AUDIO
    INDEX 00 67:19:57
    INDEX 01 67:21:57
  TRACK 60 AUDIO
    INDEX 00 67:39:36
    INDEX 01 67:41:36
  TRACK 61 AUDIO
    INDEX 00 70:28:08
    INDEX 01 70:30:08
REM LEADOUT 70:47:62
